<svg viewBox="0 0 64 64" xmlns="http://www.w3.org/2000/svg">
  <!-- Concept 4: An abstract W made of flowing fabric lines with a weather element -->
  <g>
    <!-- Main W shape (warm tan), with smooth, flowing curves -->
    <path d="M10 20 C14 10 22 10 28 20 L32 28 L36 20 C42 10 50 10 54 20 L48 35 C40 45 32 35 24 45 C16 35 8 25 10 20 Z" fill="#d4b896"/>
    <!-- Inner flowing line (sage green) to suggest fabric texture/flow -->
    <path d="M14 22 C17 15 22 15 26 22 L32 28 L38 22 C41 15 47 15 48 22 L44 32 C38 38 32 30 26 38 C20 30 14 25 14 22 Z" fill="#6b7c5e"/>
    <!-- Weather element: a small, stylized cloud (cream) in the central valley -->
    <path d="M32 30 Q28 30 28 34 Q28 38 32 38 Q36 38 36 34 Q36 30 32 30 Z" fill="#f5f0ea"/>
  </g>
</svg>